<?xml version="1.0" standalone="no"?>
<!DOCTYPE svg PUBLIC "-//W3C//DTD SVG 20010904//EN"
 "http://www.w3.org/TR/2001/REC-SVG-20010904/DTD/svg10.dtd">
<svg version="1.0" xmlns="http://www.w3.org/2000/svg"
 width="50.000000pt" height="50.000000pt" viewBox="0 0 50.000000 50.000000"
 preserveAspectRatio="xMidYMid meet">

<g transform="translate(0.000000,50.000000) scale(0.100000,-0.100000)"
fill="#000000" stroke="none">
<path d="M80 250 l0 -230 180 0 180 0 0 163 0 163 -68 67 -68 67 -112 0 -112
0 0 -230z m210 145 l0 -65 65 0 65 0 0 -145 0 -145 -160 0 -160 0 0 210 0 210
95 0 95 0 0 -65z m110 -42 c0 -2 -20 -3 -45 -3 l-45 0 0 47 0 47 45 -44 c25
-24 45 -45 45 -47z"/>
<path d="M227 272 c-12 -18 -25 -92 -17 -97 4 -3 11 3 15 13 6 16 8 16 22 -3
14 -19 15 -17 9 30 -6 50 -19 75 -29 57z m10 -54 c-3 -8 -6 -5 -6 6 -1 11 2
17 5 13 3 -3 4 -12 1 -19z"/>
<path d="M280 225 c0 -35 4 -54 10 -50 6 3 10 26 10 50 0 24 -4 47 -10 50 -6
4 -10 -15 -10 -50z"/>
</g>
</svg>
